<svg width="82" height="98" viewBox="0 0 82 98" fill="none" xmlns="http://www.w3.org/2000/svg">
<path d="M74.4741 13.9246H68.4304C68.3045 13.9246 68.1925 13.9678 68.0754 13.9962V7.6497C68.0754 3.43131 64.5655 0 60.2504 0H7.82499C3.50989 0 0 3.43131 0 7.6497V78.9918C0 83.2102 3.50989 86.6415 7.82499 86.6415H17.0189V90.0955C17.0189 94.1628 20.3943 97.4717 24.5447 97.4717H74.4741C78.6246 97.4717 82 94.1628 82 90.0955V21.3008C82 17.2334 78.6246 13.9246 74.4741 13.9246ZM3.09427 78.9918V7.6497C3.09427 5.13858 5.21717 3.09442 7.82499 3.09442H60.2504C62.8582 3.09442 64.9811 5.13858 64.9811 7.6497V78.9918C64.9811 81.5029 62.8582 83.5472 60.2504 83.5472H7.82499C5.21717 83.5472 3.09427 81.5029 3.09427 78.9918ZM78.9056 90.0955C78.9056 92.457 76.9173 94.3774 74.4741 94.3774H24.5447C22.1015 94.3774 20.1131 92.457 20.1131 90.0955V86.6415H60.2504C64.5655 86.6415 68.0754 83.2102 68.0754 78.9918V16.9473C68.1925 16.9756 68.3045 17.0189 68.4304 17.0189H74.4741C76.9173 17.0189 78.9056 18.9392 78.9056 21.3008V90.0955Z" fill="white"/>
<path d="M51.0566 20.1133H17.0189C16.1637 20.1133 15.4717 20.8052 15.4717 21.6603C15.4717 22.5157 16.1637 23.2075 17.0189 23.2075H51.0566C51.9118 23.2075 52.6038 22.5157 52.6038 21.6603C52.6038 20.8052 51.9118 20.1133 51.0566 20.1133Z" fill="white"/>
<path d="M51.0566 32.4907H17.0189C16.1637 32.4907 15.4717 33.1826 15.4717 34.0377C15.4717 34.8929 16.1637 35.5849 17.0189 35.5849H51.0566C51.9118 35.5849 52.6038 34.8929 52.6038 34.0377C52.6038 33.1826 51.9118 32.4907 51.0566 32.4907Z" fill="white"/>
<path d="M51.0566 44.8679H17.0189C16.1637 44.8679 15.4717 45.56 15.4717 46.4151C15.4717 47.2703 16.1637 47.9623 17.0189 47.9623H51.0566C51.9118 47.9623 52.6038 47.2703 52.6038 46.4151C52.6038 45.56 51.9118 44.8679 51.0566 44.8679Z" fill="white"/>
<path d="M35.585 57.2452H17.0189C16.1637 57.2452 15.4717 57.9373 15.4717 58.7924C15.4717 59.6476 16.1637 60.3397 17.0189 60.3397H35.585C36.4401 60.3397 37.132 59.6476 37.132 58.7924C37.132 57.9373 36.4401 57.2452 35.585 57.2452Z" fill="white"/>
</svg>
