<svg width="93" height="93" viewBox="0 0 93 93" fill="none" xmlns="http://www.w3.org/2000/svg">
<path d="M42.1248 13.7505H13.25C11.0619 13.7505 8.96352 14.6197 7.41636 16.1668C5.86919 17.714 5 19.8124 5 22.0004V79.7501C5 81.9382 5.86919 84.0366 7.41636 85.5837C8.96352 87.1309 11.0619 88.0001 13.25 88.0001H70.9996C73.1877 88.0001 75.2861 87.1309 76.8332 85.5837C78.3804 84.0366 79.2496 81.9382 79.2496 79.7501V50.8753" stroke="white" stroke-width="8.24996" stroke-linecap="round" stroke-linejoin="round"/>
<path d="M73.0621 7.56293C74.7032 5.92191 76.9289 5 79.2496 5C81.5704 5 83.7961 5.92191 85.4371 7.56293C87.0781 9.20395 88 11.4296 88 13.7504C88 16.0711 87.0781 18.2968 85.4371 19.9379L46.2498 59.1252L29.7499 63.2501L33.8749 46.7502L73.0621 7.56293Z" stroke="white" stroke-width="8.24996" stroke-linecap="round" stroke-linejoin="round"/>
</svg>
