<svg width="30" height="30" viewBox="0 0 30 30" fill="none" xmlns="http://www.w3.org/2000/svg">
<path fill-rule="evenodd" clip-rule="evenodd" d="M3.68419 0.601525C3.28004 0.211187 2.73875 -0.00480132 2.1769 8.10056e-05C1.61505 0.00496333 1.0776 0.230325 0.680292 0.627628C0.282989 1.02493 0.057627 1.56239 0.0527446 2.12424C0.0478623 2.68609 0.26385 3.22738 0.654189 3.63153L11.9963 14.9737L0.654189 26.3158C0.449524 26.5135 0.286277 26.7499 0.173972 27.0114C0.0616667 27.2728 0.00255337 27.554 8.09073e-05 27.8385C-0.00239156 28.1231 0.0518264 28.4052 0.159571 28.6686C0.267316 28.9319 0.42643 29.1712 0.627628 29.3724C0.828827 29.5736 1.06808 29.7327 1.33143 29.8404C1.59478 29.9482 1.87695 30.0024 2.16148 29.9999C2.446 29.9974 2.72719 29.9383 2.98863 29.826C3.25006 29.7137 3.48652 29.5505 3.68419 29.3458L15.0263 18.0037L26.3685 29.3458C26.7726 29.7361 27.3139 29.9521 27.8758 29.9473C28.4376 29.9424 28.9751 29.717 29.3724 29.3197C29.7697 28.9224 29.995 28.3849 29.9999 27.8231C30.0048 27.2612 29.7888 26.72 29.3985 26.3158L18.0563 14.9737L29.3985 3.63153C29.7888 3.22738 30.0048 2.68609 29.9999 2.12424C29.995 1.56239 29.7697 1.02493 29.3724 0.627628C28.9751 0.230325 28.4376 0.00496333 27.8758 8.10056e-05C27.3139 -0.00480132 26.7726 0.211187 26.3685 0.601525L15.0263 11.9437L3.68419 0.601525Z" fill="#F24E1E"/>
</svg>
