<svg width="50" height="50" viewBox="0 0 50 50" fill="none" xmlns="http://www.w3.org/2000/svg">
<path d="M20.5503 33.071C18.8628 39.9506 16.8114 46.5502 10.6967 50C8.81728 39.6006 13.4695 31.7811 15.6268 23.4865C11.9474 18.6668 16.0702 8.95739 23.8326 11.3523C33.3951 14.2921 15.5606 29.2812 27.5385 31.1511C40.0326 33.111 45.1413 14.2821 37.3855 8.15244C26.1885 -0.687043 4.78054 7.95245 7.41434 20.6117C8.05625 23.7115 12.1658 24.6465 9.05551 28.9162C1.88864 27.6813 -0.248849 23.2816 0.0224729 17.4169C0.465853 7.81746 11.107 1.10285 21.7878 0.167907C35.2877 -1.00702 47.9538 4.02768 49.7075 13.9071C51.6729 25.0565 43.6127 37.1357 29.1731 36.2658C25.2687 36.0308 23.6143 34.5159 20.5503 33.066V33.071Z" fill="white"/>
</svg>
